<svg xmlns="http://www.w3.org/2000/svg" width="1600" height="900" viewBox="0 0 1600 900">
  <defs>
    <style>
      .l{fill:none;stroke:#000;stroke-opacity:.10;stroke-width:4;stroke-linecap:round;stroke-linejoin:round}
      .s{fill:none;stroke:#000;stroke-opacity:.06;stroke-width:6;stroke-linecap:round;stroke-linejoin:round}
    </style>
  </defs>

  <!-- Boden -->
  <path class="s" d="M120 640 H1480"/>

  <!-- Scheune -->
  <path class="l" d="M260 640 V440 L400 360 L540 440 V640"/>
  <path class="l" d="M400 360 V300"/>
  <path class="l" d="M330 640 V520 H470 V640"/>

  <!-- Mausefalle -->
  <rect class="l" x="900" y="600" width="240" height="70" rx="12"/>
  <path class="l" d="M935 620 C995 575, 1045 575, 1105 620"/>
  <circle cx="970" cy="635" r="10" fill="#000" opacity=".08"/>
  <circle cx="995" cy="635" r="10" fill="#000" opacity=".08"/>

  <!-- Schlange -->
  <path class="l" d="M820 690 C880 650, 960 730, 1020 690 C1080 650, 1160 730, 1220 690"/>
  <path class="l" d="M1220 690 C1260 665, 1290 670, 1310 690"/>
  <circle cx="1318" cy="690" r="6" fill="#000" opacity=".10"/>

  <!-- Huhn -->
  <path class="l" d="M720 690 C740 660, 790 660, 810 690 C830 720, 800 745, 770 740 C740 735, 700 720, 720 690 Z"/>
  <path class="l" d="M815 680 L850 670"/>
  <path class="l" d="M760 745 L750 775 M780 745 L780 775"/>

  <!-- Schaf -->
  <path class="l" d="M520 700 C540 665, 610 665, 630 700 C650 735, 610 765, 575 757 C540 750, 500 730, 520 700 Z"/>
  <circle cx="640" cy="710" r="18" fill="none" stroke="#000" stroke-opacity=".10" stroke-width="4"/>
  <path class="l" d="M555 765 V795 M585 765 V795 M615 765 V795"/>

  <!-- Kuh -->
  <path class="l" d="M260 690 C300 640, 410 640, 460 690 C510 740, 450 800, 365 785 C300 773, 220 740, 260 690 Z"/>
  <path class="l" d="M460 690 L510 670"/>
  <path class="l" d="M320 785 V825 M410 785 V825"/>

  <!-- Maus -->
  <path class="l" d="M140 760 C160 735, 210 740, 220 770 C230 800, 195 820, 170 810 C145 800, 120 785, 140 760 Z"/>
  <circle cx="155" cy="750" r="10" class="l"/>
  <circle cx="180" cy="750" r="10" class="l"/>
  <path class="l" d="M220 775 C255 770, 280 785, 300 805"/>
</svg>
