<svg xmlns="http://www.w3.org/2000/svg" width="1600" height="900" viewBox="0 0 1600 900">
  <defs>
    <style>
      .l{fill:none;stroke:#000;stroke-opacity:.10;stroke-width:4.5;stroke-linecap:round;stroke-linejoin:round}
      .s{fill:none;stroke:#000;stroke-opacity:.06;stroke-width:7;stroke-linecap:round;stroke-linejoin:round}
    </style>
  </defs>

  <path class="s" d="M120 660 H1480"/>

  <path class="l" d="M240 660 V450 L400 360 L560 450 V660"/>
  <path class="l" d="M400 360 V300"/>
  <path class="l" d="M330 660 V540 H470 V660"/>

  <path class="l" d="M1120 660 V520 H1370 V660"/>
  <path class="l" d="M1120 520 L1245 430 L1370 520"/>
  <path class="l" d="M1200 660 V570 H1290 V660"/>

  <path class="l" d="M1030 650 C1045 620, 1070 620, 1085 650 V690 H1030 Z"/>
  <path class="l" d="M980 650 C995 625, 1015 625, 1030 650 V690 H980 Z"/>
  <path class="l" d="M1085 650 C1100 625, 1120 625, 1135 650 V690 H1085 Z"/>

  <path class="l" d="M690 720 C710 690, 760 690, 780 720 C800 750, 770 775, 740 770 C710 765, 670 750, 690 720 Z"/>
  <path class="l" d="M785 710 L820 700"/>
  <path class="l" d="M730 775 L720 805 M750 775 L750 805"/>

  <path class="l" d="M500 730 C520 695, 590 695, 610 730 C630 765, 590 795, 555 787 C520 780, 480 760, 500 730 Z"/>
  <circle cx="620" cy="740" r="18" fill="none" stroke="#000" stroke-opacity=".10" stroke-width="4"/>
  <path class="l" d="M535 795 V825 M565 795 V825 M595 795 V825"/>

  <path class="l" d="M260 720 C300 670, 410 670, 460 720 C510 770, 450 830, 365 815 C300 803, 220 770, 260 720 Z"/>
  <path class="l" d="M460 720 L510 700"/>
  <path class="l" d="M320 815 V855 M410 815 V855"/>

  <rect class="l" x="860" y="610" width="250" height="75" rx="14"/>
  <path class="l" d="M895 635 C955 585, 1015 585, 1075 635"/>
  <circle cx="930" cy="650" r="10" fill="#000" opacity=".08"/>
  <circle cx="955" cy="650" r="10" fill="#000" opacity=".08"/>

  <path class="l" d="M760 780 C820 740, 900 820, 960 780 C1020 740, 1100 820, 1160 780"/>
  <path class="l" d="M1160 780 C1200 755, 1230 760, 1250 780"/>
  <circle cx="1258" cy="780" r="6" fill="#000" opacity=".10"/>

  <path class="l" d="M140 805 C160 780, 205 785, 215 815 C225 845, 195 865, 170 855 C145 845, 125 830, 140 805 Z"/>
  <circle cx="152" cy="795" r="10" class="l"/>
  <circle cx="175" cy="795" r="10" class="l"/>
  <path class="l" d="M215 820 C245 815, 270 830, 290 845"/>
</svg>
